<svg xmlns="http://www.w3.org/2000/svg" width="19" height="15">
  <path fill-rule="evenodd" d="M14.082 13.658c.41 0 .795-.077 1.155-.232.36-.155.675-.367.944-.636.27-.27.48-.586.636-.95.155-.365.233-.752.233-1.162 0-.565-.145-1.08-.432-1.545-.287-.465-.663-.825-1.128-1.08.055-.2.096-.404.123-.61.028-.204.04-.41.04-.62 0-.657-.122-1.272-.368-1.846-.246-.575-.58-1.076-1.005-1.504-.424-.43-.923-.766-1.497-1.012-.574-.245-1.185-.368-1.832-.368-.72 0-1.39.152-2.015.458-.625.305-1.15.718-1.58 1.237-.173-.064-.35-.114-.533-.15-.182-.037-.37-.055-.56-.055-.41 0-.796.078-1.156.232-.36.155-.672.37-.936.643s-.474.59-.63.95c-.154.36-.23.745-.23 1.155 0 .22.02.427.06.623.04.196.103.39.185.58-.666.137-1.222.477-1.668 1.02-.447.54-.67 1.173-.67 1.893 0 .4.075.78.225 1.14.15.36.356.674.616.938.26.264.562.478.91.642.345.165.72.25 1.12.26h9.994zm2.748-6.152c.438.392.786.86 1.046 1.408.26.547.39 1.135.39 1.764 0 .574-.107 1.112-.322 1.613-.214.502-.506.942-.875 1.32-.37.38-.803.682-1.3.91-.496.227-1.027.346-1.592.355H4.17c-.574 0-1.114-.11-1.62-.328-.506-.22-.948-.52-1.326-.902-.38-.383-.677-.83-.896-1.34-.22-.51-.328-1.053-.328-1.627 0-.392.05-.768.15-1.128.1-.36.244-.697.43-1.012.188-.314.41-.6.67-.86.26-.26.546-.477.855-.65 0-.083-.002-.16-.006-.233-.006-.073-.008-.15-.008-.232 0-.575.11-1.117.328-1.627.22-.51.515-.957.89-1.34.372-.383.814-.684 1.325-.903.51-.218 1.052-.328 1.627-.328.118 0 .237.005.355.014.12.008.237.026.356.054.264-.247.55-.465.854-.657.305-.19.624-.353.957-.485.333-.132.68-.235 1.046-.308.365-.073.738-.11 1.12-.11.82 0 1.592.156 2.312.466.72.31 1.346.736 1.88 1.278.533.542.954 1.174 1.264 1.894.31.72.465 1.49.465 2.31 0 .12-.003.235-.013.35l-.027.334zm-9.432 2.36l1.134-1.12c.12-.128.263-.19.43-.184.17.004.313.066.432.184.118.12.178.262.178.43 0 .17-.06.313-.178.43L7.288 11.7c-.054.08-.125.145-.212.19-.086.046-.18.07-.28.07-.09 0-.178-.02-.26-.056-.082-.036-.15-.086-.205-.15L4.186 9.607c-.128-.127-.19-.273-.185-.437.005-.164.066-.305.185-.424.118-.118.262-.178.43-.178.17 0 .313.06.43.178L6.182 9.88V6.478c0-.165.06-.306.18-.424.117-.12.263-.178.436-.178.164 0 .305.06.424.178.118.118.178.26.178.424v3.39zm3.776-3.9L10.04 7.09c-.12.127-.263.19-.432.184-.168-.004-.312-.066-.43-.184-.12-.12-.178-.262-.178-.43 0-.17.06-.313.178-.43l2.105-2.093c.055-.082.126-.146.212-.192.087-.045.18-.068.28-.068.092 0 .178.018.26.055.082.036.15.086.205.15l2.147 2.147c.127.127.19.273.184.437-.003.164-.065.305-.183.424-.12.118-.262.178-.43.178-.17 0-.313-.06-.432-.178L12.39 5.953v3.404c0 .164-.06.306-.177.424-.12.12-.264.18-.438.18-.164 0-.305-.06-.423-.18-.12-.117-.178-.26-.178-.423v-3.39z"/>
</svg>
