<svg xmlns="http://www.w3.org/2000/svg" width="15" height="18">
  <g fill-rule="evenodd">
    <path fill-rule="nonzero" d="M2 7.25c-.414 0-.75.336-.75.75v8c0 .414.336.75.75.75h11c.414 0 .75-.336.75-.75V8c0-.414-.336-.75-.75-.75H2zM2 6h11c1.105 0 2 .895 2 2v8c0 1.105-.895 2-2 2H2c-1.105 0-2-.895-2-2V8c0-1.105.895-2 2-2z"/>
    <rect width="1.75" height="4.75" x="6.625" y="9.625" stroke-width="1.25" rx=".875"/>
    <path fill-rule="nonzero" d="M7.5 1.25c-1.795 0-3.25 1.455-3.25 3.25v2.192h6.5V4.5c0-1.795-1.455-3.25-3.25-3.25zM7.5 0C9.985 0 12 2.015 12 4.5v2.192H3V4.5C3 2.015 5.015 0 7.5 0z"/>
  </g>
</svg>
