<svg xmlns="http://www.w3.org/2000/svg" xmlns:xlink="http://www.w3.org/1999/xlink" width="18" height="16">
  <defs>
    <path id="a" d="M9 16a.434.434 0 0 1-.34-.166L.099 5.07a.455.455 0 0 1-.005-.558L3.423.17A.435.435 0 0 1 3.767 0h10.466c.134 0 .262.063.344.171l3.33 4.34a.455.455 0 0 1-.005.558L9.34 15.834A.435.435 0 0 1 9 16zM1.5 4.975l7.502 9.432 7.5-9.432-2.795-3.644H4.294L1.5 4.975zm10.798-1.37l1.1-3.377 1.249.368L13.467 4h4.095v1.2h-4.51L9.413 15.702A.44.44 0 0 1 9 16a.438.438 0 0 1-.413-.298L4.949 5.2H.438V4h4.096L3.354.596 4.593.33 5.68 3.633 8.67.153a.434.434 0 0 1 .658 0l2.968 3.452zM11.16 4L9 1.354 6.808 4h4.353zm.616 1.2H6.195l2.806 8.523L11.777 5.2z"/>
  </defs>
  <use fill="#FAB117" fill-rule="nonzero" xlink:href="#a"/>
</svg>
