<svg viewBox="0 0 108 106" xmlns="http://www.w3.org/2000/svg">
  <g fill="none" fill-rule="evenodd">
    <g transform="rotate(10 -29.51 146.155)">
      <path stroke="#F5F5F6" d="M1.674 2.485h81v81h-81z"/>
      <circle fill="#5FC8D7" cx="82.174" cy="2.985" r="2"/>
      <circle fill="#5FC8D7" cx="2.174" cy="2.985" r="2"/>
      <circle fill="#5FC8D7" cx="2.174" cy="82.985" r="2"/>
      <circle fill="#5FC8D7" cx="82.174" cy="82.985" r="2"/>
      <g fill="#5FC8D7">
        <path d="M42 11.282h9.89c2.695 0 5.17-.016 7.426-.047 2.256-.031 4.387-.063 6.392-.094 2.005-.031 3.98-.078 5.922-.141 0 2.632.204 5.562.611 8.789.407 3.227.956 6.251 1.645 9.071-1.253.501-2.71.877-4.371 1.128-1.66.25-3.462.376-5.405.376-.877-4.199-2.068-7.254-3.572-9.165-1.504-1.911-3.854-2.867-7.05-2.867h-1.88v38.916c0 2.193.125 3.948.376 5.264.25 1.316.705 2.35 1.363 3.102.658.752 1.582 1.285 2.773 1.598 1.19.313 2.757.501 4.7.564.313.877.548 2.005.705 3.384.157 1.379.235 2.695.235 3.948-1.755-.125-4.246-.204-7.473-.235-3.227-.031-6.846-.047-10.857-.047H42V11.282z" fill-opacity=".5"/>
        <path d="M42.886 11.282h-9.89c-2.695 0-5.17-.016-7.426-.047-2.256-.031-4.387-.063-6.392-.094-2.005-.031-3.98-.078-5.922-.141 0 2.632-.204 5.562-.611 8.789-.407 3.227-.956 6.251-1.645 9.071 1.253.501 2.71.877 4.371 1.128 1.66.25 3.462.376 5.405.376.877-4.199 2.068-7.254 3.572-9.165 1.504-1.911 3.854-2.867 7.05-2.867h1.88v38.916c0 2.193-.125 3.948-.376 5.264-.25 1.316-.705 2.35-1.363 3.102-.658.752-1.582 1.285-2.773 1.598-1.19.313-2.757.501-4.7.564-.313.877-.548 2.005-.705 3.384a35.012 35.012 0 0 0-.235 3.948c1.755-.125 4.246-.204 7.473-.235 3.227-.031 6.846-.047 10.857-.047h1.43V11.282z"/>
      </g>
    </g>
    <path d="M101.88 87.223a1.43 1.43 0 0 1-1.098-.105l-5.906-3.14a3.378 3.378 0 0 1-1.656-2.007c-.615-2.012.678-3.77 2.23-4.244a3.375 3.375 0 0 1 2.621.246l1.17.621.622-1.169a3.375 3.375 0 0 1 2.036-1.67c1.552-.474 3.606.26 4.221 2.272a3.378 3.378 0 0 1-.25 2.59l-3.142 5.906c-.18.339-.48.587-.848.7z" fill="#60C7D7" fill-rule="nonzero"/>
    <path d="M85.158 12.6a1.44 1.44 0 0 1-.706-.856l-1.97-6.434a3.398 3.398 0 0 1 .251-2.606C83.727.835 85.897.506 87.337 1.27a3.395 3.395 0 0 1 1.69 2.04l.39 1.274 1.275-.389a3.395 3.395 0 0 1 2.636.26c1.44.767 2.38 2.75 1.387 4.619a3.398 3.398 0 0 1-2.02 1.665l-6.436 1.965c-.369.113-.76.076-1.101-.105z" fill="#F16651" fill-rule="nonzero"/>
    <path d="M8.747 48.97a1.25 1.25 0 0 1-.961-.058l-5.251-2.56a2.95 2.95 0 0 1-1.507-1.702c-.598-1.737.478-3.31 1.817-3.771a2.947 2.947 0 0 1 2.296.134l1.04.507.507-1.04a2.947 2.947 0 0 1 1.726-1.519c1.34-.461 3.155.117 3.753 1.854a2.95 2.95 0 0 1-.14 2.269l-2.561 5.25a1.248 1.248 0 0 1-.72.636z" fill="#FBB116" fill-rule="nonzero"/>
  </g>
</svg>