<?xml version="1.0" encoding="UTF-8"?>
<svg width="24px" height="24px" viewBox="0 0 24 24" version="1.1" xmlns="http://www.w3.org/2000/svg" xmlns:xlink="http://www.w3.org/1999/xlink">
    <!-- Generator: Sketch 56.3 (81716) - https://sketch.com -->
    <title>Style/Icons/24px/Asset</title>
    <desc>Created with Sketch.</desc>
    <g id="Style/Icons/24px/Asset" stroke="none" stroke-width="1" fill="none" fill-rule="evenodd">
        <g transform="translate(2.000000, 3.000000)" fill="#363D4A" fill-rule="nonzero" id="Icon_Asset">
            <path d="M18.4670875,10.1601562 L18.4670875,2.98828125 C18.4670875,2.57812295 18.3168034,2.22656396 18.0162308,1.93359375 C17.7156583,1.64062354 17.3549766,1.49414062 16.9341749,1.49414062 L3.06582507,1.49414062 C2.64502344,1.49414062 2.28434175,1.64062354 1.98376916,1.93359375 C1.68319657,2.22656396 1.53291253,2.57812295 1.53291253,2.98828125 L1.53291253,10.7402344 L7.05139766,8.20898437 L13.8142471,12.6914062 L18.4670875,10.1601562 Z M18.4670875,11.7070312 L13.6158702,14.203125 L7.05139766,9.75585937 L1.53291253,12.1992187 L1.53291253,15.0117187 C1.53291253,15.4218771 1.68319657,15.773436 1.98376916,16.0664062 C2.28434175,16.3593765 2.64502344,16.5058594 3.06582507,16.5058594 L16.9341749,16.5058594 C17.3549766,16.5058594 17.7156583,16.3593765 18.0162308,16.0664062 C18.3168034,15.773436 18.4670875,15.4218771 18.4670875,15.0117187 L18.4670875,11.7070312 Z M0,2.25 C0,1.62890314 0.22542606,1.09863501 0.676284941,0.659179688 C1.12714382,0.219724365 1.67117205,0 2.30838593,0 L17.6916141,0 C18.328828,0 18.8728562,0.219724365 19.3237151,0.659179688 C19.7745739,1.09863501 20,1.62890314 20,2.25 L20,15.75 C20,16.3710969 19.7745739,16.901365 19.3237151,17.3408203 C18.8728562,17.7802756 18.328828,18 17.6916141,18 L2.30838593,18 C1.67117205,18 1.12714382,17.7802756 0.676284941,17.3408203 C0.22542606,16.901365 0,16.3710969 0,15.75 L0,2.25 Z M13.8503156,9 C12.9966894,9 12.2693147,8.70703418 11.6681695,8.12109375 C11.0670243,7.53515332 10.7664563,6.82617604 10.7664563,5.99414062 C10.7664563,5.17382402 11.0670243,4.47070605 11.6681695,3.88476562 C12.2693147,3.2988252 12.9966894,3.00585937 13.8503156,3.00585937 C14.7039417,3.00585937 15.4313165,3.2988252 16.0324617,3.88476562 C16.6336069,4.47070605 16.9341749,5.17382402 16.9341749,5.99414062 C16.9341749,6.82617604 16.6336069,7.53515332 16.0324617,8.12109375 C15.4313165,8.70703418 14.7039417,9 13.8503156,9 Z M13.8503156,7.50585937 C14.2711172,7.50585937 14.6317989,7.35937646 14.9323715,7.06640625 C15.2329441,6.77343604 15.3832281,6.41601773 15.3832281,5.99414062 C15.3832281,5.58398232 15.2329441,5.23242334 14.9323715,4.93945312 C14.6317989,4.64648291 14.2711172,4.5 13.8503156,4.5 C13.429514,4.5 13.0688323,4.64648291 12.7682597,4.93945312 C12.4676871,5.23242334 12.3174031,5.58398232 12.3174031,5.99414062 C12.3174031,6.41601773 12.4676871,6.77343604 12.7682597,7.06640625 C13.0688323,7.35937646 13.429514,7.50585937 13.8503156,7.50585937 Z"></path>
        </g>
    </g>
</svg>